<?xml version="1.0" ?><svg enable-background="new 0 0 52 52" id="Layer_1" version="1.1" viewBox="0 0 52 52" xml:space="preserve" xmlns="http://www.w3.org/2000/svg" xmlns:xlink="http://www.w3.org/1999/xlink"><g><g><path d="M49.2399597,24.7099609C43.0400085,17.1599731,34.7900085,13,25.9999695,13    c-8.789978,0-17.039978,4.1599731-23.2399902,11.7099609L1.7099915,26l1.0499878,1.289978    C8.9599915,34.8399658,17.2099915,39,25.9999695,39c8.7900391,0,17.0400391-4.1600342,23.2399902-11.710022L50.2900085,26    L49.2399597,24.7099609z M25.9999695,35c-4.9599609,0-9-4.0400391-9-9c0-4.960022,4.0400391-9,9-9    c0.9400024,0,1.8800049,0.1499634,2.7900391,0.4500122l0.7599487,0.2399902l-0.0899658,0.9199829    c0,1.039978,1.1099854,1.8300171,2.1400146,1.289978l0.6999512-0.3699951l0.5200195,0.6099854    C34.230011,21.7699585,34.9999695,23.8499756,34.9999695,26C34.9999695,30.9599609,30.9599915,35,25.9999695,35z"/></g><g><path d="M25.9999695,22c-2.2099609,0-4,1.7999878-4,4c0,2.2099609,1.7900391,4,4,4c2.210022,0,4-1.7900391,4-4    C29.9999695,23.7999878,28.2099915,22,25.9999695,22z" fill="#F93E2B"/></g></g></svg>