<?xml version="1.0" ?><svg data-name="Layer 2" id="Layer_2" viewBox="0 0 64 64" xmlns="http://www.w3.org/2000/svg"><defs><style>.cls-1{fill:#45d4d9;}.cls-2{fill:#2d95b5;}.cls-3{fill:#ffe94f;}.cls-4{fill:#2c2a3d;}</style></defs><title/><rect class="cls-1" height="58" rx="2" ry="2" width="44" x="10" y="3"/><path class="cls-2" d="M12,3H52a2,2,0,0,1,2,2V6a0,0,0,0,1,0,0H10a0,0,0,0,1,0,0V5A2,2,0,0,1,12,3Z"/><rect class="cls-3" height="36" transform="translate(64) rotate(90)" width="50" x="7" y="14"/><path class="cls-4" d="M52,2H12A3,3,0,0,0,9,5V59a3,3,0,0,0,3,3H52a3,3,0,0,0,3-3V5A3,3,0,0,0,52,2ZM39,4V6H25V4ZM25,12H39a2,2,0,0,0,2-2V8h8V56H15V8h8v2A2,2,0,0,0,25,12Zm14-2H25V8H39ZM53,59a1,1,0,0,1-1,1H12a1,1,0,0,1-1-1V5a1,1,0,0,1,1-1H23V6H14a1,1,0,0,0-1,1V57a1,1,0,0,0,1,1H50a1,1,0,0,0,1-1V7a1,1,0,0,0-1-1H41V4H52a1,1,0,0,1,1,1Z"/><path class="cls-4" d="M22.25,19h-1a1,1,0,0,0,0,2h1a1,1,0,0,0,0-2Z"/><path class="cls-4" d="M22.25,27h-1a1,1,0,0,0,0,2h1a1,1,0,0,0,0-2Z"/><path class="cls-4" d="M22.25,35h-1a1,1,0,0,0,0,2h1a1,1,0,0,0,0-2Z"/><path class="cls-4" d="M22.25,43h-1a1,1,0,0,0,0,2h1a1,1,0,0,0,0-2Z"/><path class="cls-4" d="M28.75,21h14a1,1,0,0,0,0-2h-14a1,1,0,0,0,0,2Z"/><path class="cls-4" d="M28.75,29h14a1,1,0,0,0,0-2h-14a1,1,0,0,0,0,2Z"/><path class="cls-4" d="M28.75,37h14a1,1,0,0,0,0-2h-14a1,1,0,0,0,0,2Z"/><path class="cls-4" d="M28.75,45h14a1,1,0,0,0,0-2h-14a1,1,0,0,0,0,2Z"/></svg>